<?xml version="1.0" standalone="no"?>
<!DOCTYPE svg PUBLIC "-//W3C//DTD SVG 20010904//EN"
 "http://www.w3.org/TR/2001/REC-SVG-20010904/DTD/svg10.dtd">
<svg version="1.0" xmlns="http://www.w3.org/2000/svg"
 width="128.000000pt" height="127.000000pt" viewBox="0 0 128.000000 127.000000"
 preserveAspectRatio="xMidYMid meet">

<g transform="translate(0.000000,127.000000) scale(0.100000,-0.100000)"
fill="#000000" stroke="none">
<path d="M589 781 c-31 -31 -40 -86 -18 -108 9 -9 3 -16 -25 -30 -36 -17 -38
-17 -47 0 -6 9 -18 17 -29 17 -10 0 -20 5 -22 11 -4 12 -280 108 -310 109 -20
0 -36 -47 -45 -136 -8 -85 2 -131 30 -139 12 -3 38 -12 57 -20 80 -30 168 -54
215 -58 43 -4 55 -10 95 -51 25 -25 50 -46 56 -46 7 0 17 -7 25 -16 8 -10 22
-14 38 -11 13 3 33 0 42 -6 14 -9 22 -7 37 6 10 9 23 17 29 17 5 0 18 9 28 20
10 11 24 20 31 20 7 0 19 8 26 18 36 46 69 66 116 68 61 2 240 32 262 44 30
16 38 116 18 214 l-11 58 -41 -6 c-89 -13 -261 -50 -266 -56 -3 -4 -17 -10
-32 -14 -16 -3 -28 -11 -28 -16 0 -6 -20 -10 -45 -10 l-45 0 6 44 c6 41 4 48
-24 75 -41 41 -83 42 -123 2z m43 -28 c17 -15 19 -15 38 2 26 24 39 11 15 -15
-17 -19 -17 -21 0 -40 10 -11 15 -23 12 -27 -4 -3 -16 2 -27 12 -19 17 -21 17
-40 0 -26 -24 -39 -11 -15 15 17 19 17 21 2 38 -30 33 -18 45 15 15z m261
-171 c21 -108 21 -122 2 -122 -15 0 -16 3 -40 118 -19 92 -19 92 3 92 15 0 21
-16 35 -88z m-413 50 c0 -8 -62 -186 -66 -191 -2 -2 -10 -1 -18 2 -13 5 -11
19 15 94 16 48 31 94 34 100 4 12 35 7 35 -5z m306 8 l41 0 17 -82 c9 -45 14
-83 12 -85 -2 -2 -40 30 -85 72 l-81 77 -29 -21 c-27 -20 -81 -29 -81 -14 0
18 37 43 64 43 17 0 38 5 46 10 8 6 24 8 35 5 11 -2 38 -5 61 -5z m-204 -23
c-29 -31 -28 -45 5 -53 19 -5 39 -1 64 13 l37 20 76 -69 c42 -38 76 -76 76
-84 0 -29 -31 -27 -64 5 -17 17 -38 31 -46 31 -8 -1 5 -18 29 -39 62 -55 33
-90 -31 -36 -44 37 -57 30 -19 -9 51 -52 18 -80 -35 -31 -15 14 -35 25 -45 25
-11 0 -19 3 -19 8 0 4 -18 18 -40 32 -22 13 -40 29 -40 36 0 6 -7 17 -15 24
-12 10 -20 9 -40 -4 -13 -9 -26 -16 -28 -16 -2 0 6 30 18 66 20 63 24 68 66
84 63 26 77 25 51 -3z m-72 -155 c0 -25 -35 -45 -50 -27 -8 10 -6 17 12 29 29
21 38 20 38 -2z m40 -42 c0 -4 -9 -15 -20 -25 -16 -14 -23 -16 -32 -7 -9 9 -7
16 6 31 16 18 46 19 46 1z m43 -27 c11 -10 -34 -52 -49 -46 -17 6 -18 25 -2
41 13 13 41 16 51 5z m47 -36 c0 -19 -21 -37 -42 -37 -22 0 -23 8 -1 32 19 21
43 24 43 5z m44 -38 c-8 -14 -34 -11 -34 4 0 8 3 17 7 20 9 9 34 -13 27 -24z"/>
</g>
</svg>
