<?xml version="1.0" standalone="no"?>
<!DOCTYPE svg PUBLIC "-//W3C//DTD SVG 20010904//EN"
 "http://www.w3.org/TR/2001/REC-SVG-20010904/DTD/svg10.dtd">
<svg version="1.0" xmlns="http://www.w3.org/2000/svg"
 width="129.000000pt" height="124.000000pt" viewBox="0 0 129.000000 124.000000"
 preserveAspectRatio="xMidYMid meet">

<g transform="translate(0.000000,124.000000) scale(0.100000,-0.100000)"
fill="#000000" stroke="none">
<path d="M286 754 c-40 -40 -8 -114 49 -114 26 0 65 43 65 71 0 48 -80 78
-114 43z"/>
<path d="M907 752 c-37 -41 -6 -112 48 -112 55 0 87 77 47 113 -25 22 -75 21
-95 -1z"/>
<path d="M570 690 c0 -5 7 -7 15 -4 8 4 15 2 15 -4 0 -5 -7 -15 -15 -22 -22
-18 -18 -30 8 -30 16 0 18 3 8 9 -9 6 -10 11 -2 15 19 12 13 46 -9 46 -11 0
-20 -4 -20 -10z"/>
<path d="M650 665 c0 -19 5 -35 10 -35 6 0 10 6 10 13 0 8 4 7 10 -3 9 -13 12
-12 22 5 11 19 11 19 19 0 6 -15 8 -11 8 18 1 43 -13 49 -27 10 l-9 -28 -13
28 c-18 37 -30 34 -30 -8z"/>
<path d="M253 587 c-21 -21 -27 -37 -27 -75 l-1 -47 108 -3 107 -3 0 34 c0 48
-19 96 -43 108 -11 7 -42 12 -69 13 -41 1 -53 -3 -75 -27z"/>
<path d="M492 597 c-28 -29 -28 -31 5 -52 23 -16 25 -16 20 -1 -6 14 8 16 123
16 111 0 129 -2 124 -15 -8 -21 9 -19 29 3 21 23 21 32 0 48 -24 18 -34 17
-27 -1 5 -13 -13 -15 -126 -15 -127 0 -131 1 -125 20 8 26 3 25 -23 -3z"/>
<path d="M871 584 c-15 -19 -21 -41 -21 -75 l0 -49 105 0 105 0 0 49 c0 34 -6
56 -21 75 -18 23 -27 26 -84 26 -57 0 -66 -3 -84 -26z"/>
</g>
</svg>
