<?xml version="1.0" standalone="no"?>
<!DOCTYPE svg PUBLIC "-//W3C//DTD SVG 20010904//EN"
 "http://www.w3.org/TR/2001/REC-SVG-20010904/DTD/svg10.dtd">
<svg version="1.0" xmlns="http://www.w3.org/2000/svg"
 width="130.000000pt" height="127.000000pt" viewBox="0 0 130.000000 127.000000"
 preserveAspectRatio="xMidYMid meet">

<g transform="translate(0.000000,127.000000) scale(0.100000,-0.100000)"
fill="#000000" stroke="none">
<path d="M520 925 l-45 -14 75 2 75 2 3 -31 c2 -25 -1 -33 -17 -37 -14 -3 -21
-13 -21 -30 0 -20 -6 -27 -30 -32 -16 -4 -41 -20 -55 -37 -25 -29 -25 -30 -25
-234 l0 -204 24 -15 c21 -14 51 -16 180 -13 86 2 159 7 165 13 5 6 13 100 16
210 6 189 5 202 -14 232 -11 17 -35 37 -55 44 -26 9 -36 19 -38 38 -2 18 -10
27 -25 29 -30 4 -32 51 -3 59 24 6 26 19 4 27 -28 11 -168 4 -214 -9z m140
-230 l0 -75 -70 0 -71 0 3 -147 3 -148 146 -3 146 -3 6 142 c4 78 4 145 1 150
-3 5 -34 9 -70 9 l-64 0 0 75 0 75 54 0 c49 0 57 -3 81 -32 l27 -32 -4 -190
c-1 -105 -7 -197 -11 -203 -9 -15 -322 -19 -331 -5 -2 4 -6 99 -8 210 l-3 204
28 24 c22 19 39 24 83 24 l54 0 0 -75z m30 -220 c0 -118 -1 -125 -20 -125 -19
0 -20 7 -20 125 0 118 1 125 20 125 19 0 20 -7 20 -125z"/>
</g>
</svg>
