<svg width="57" height="57" viewBox="0 0 57 57" fill="none" xmlns="http://www.w3.org/2000/svg">
<g clip-path="url(#clip0)">
<path d="M24.2139 29.0557C21.0437 29.0557 18.8051 30.6933 16.6401 32.2772C16.0365 32.7188 15.4123 33.1754 14.7731 33.5931L15.6866 34.991C16.3626 34.5493 17.0049 34.0795 17.6262 33.625C19.7527 32.0692 21.5893 30.7257 24.2139 30.7257C26.8386 30.7257 28.6751 32.0693 30.8017 33.625C31.4229 34.0795 32.0652 34.5493 32.7412 34.991L33.6546 33.5931C33.0155 33.1755 32.3913 32.7188 31.7876 32.2772C29.6228 30.6934 27.3842 29.0557 24.2139 29.0557Z" fill="#B75C5C"/>
<path d="M45.923 33.2302H41.0088C37.7743 32.4924 35.5996 30.9276 33.4966 29.4132C30.8558 27.5116 28.3614 25.7156 24.214 25.7156C20.4966 25.7156 18.0814 27.1915 15.9262 28.7032L16.885 30.0703C18.9022 28.6555 20.9806 27.3855 24.214 27.3855C27.8228 27.3855 29.9999 28.9532 32.5208 30.7684C34.5419 32.2237 36.816 33.8612 40.0784 34.7215V37.4049C40.0784 41.0685 38.3161 44.614 35.1165 47.3885C32.0303 50.0645 28.0566 51.5992 24.214 51.5992C20.3715 51.5992 16.3977 50.0645 13.3116 47.3885C10.1118 44.6141 8.34961 41.0685 8.34961 37.4049V34.7218C11.3211 33.9408 13.4473 32.5338 15.5336 31.0368L14.5602 29.68C12.4105 31.2223 10.3856 32.5539 7.41612 33.2301H2.50488C1.12363 33.2301 0 34.3537 0 35.735V42.4148C0 43.9611 0.601172 45.3507 1.7385 46.4332C2.77485 47.4195 4.1974 48.066 5.74431 48.2534L12.7624 49.1037C16.0648 51.7578 20.1992 53.2692 24.214 53.2692C28.2288 53.2692 32.3633 51.7579 35.6656 49.1037L42.6836 48.2534C44.2306 48.0659 45.6532 47.4195 46.6895 46.4332C47.8267 45.3506 48.4278 43.9611 48.4278 42.4148V41.5798H46.7579V42.4148C46.7579 44.9314 44.5418 46.3461 42.4827 46.5956L37.7324 47.1712C40.3358 44.3299 41.7482 40.9254 41.7482 37.4049V34.9H45.923C46.3833 34.9 46.7579 35.2745 46.7579 35.735V36.57H48.4278V35.735C48.4278 34.3539 47.3042 33.2302 45.923 33.2302ZM1.66992 42.4148V35.735C1.66992 35.2747 2.04443 34.9 2.50488 34.9H6.67969V37.4049C6.67969 40.9254 8.092 44.3299 10.6954 47.1712L5.94503 46.5956C3.00775 46.2398 1.66992 44.1789 1.66992 42.4148Z" fill="#B75C5C"/>
<path d="M46.7579 38.24H48.4279V39.9099H46.7579V38.24Z" fill="#B75C5C"/>
<path d="M32.7217 41.2617C30.0291 41.9827 27.0873 42.3638 24.214 42.3638C21.3407 42.3638 18.3989 41.9827 15.7063 41.2617L15.2743 42.8748C18.1057 43.633 21.197 44.0337 24.214 44.0337C27.231 44.0337 30.3222 43.6329 33.1536 42.8748L32.7217 41.2617Z" fill="#B75C5C"/>
<path d="M16.1468 45.1877L15.7777 46.8164C18.4752 47.4278 21.3925 47.751 24.214 47.751C27.0356 47.751 29.9528 47.4278 32.6502 46.8164L32.281 45.1877C29.7029 45.7721 26.9133 46.081 24.214 46.081C21.5146 46.0809 18.725 45.7721 16.1468 45.1877Z" fill="#B75C5C"/>
<path d="M33.1568 37.2747C30.4658 38.1594 27.2899 38.6467 24.214 38.6467C21.1382 38.6467 17.9621 38.1595 15.2711 37.2747L14.7495 38.8611C17.6457 39.8133 20.9186 40.3166 24.2139 40.3166C27.5093 40.3166 30.7821 39.8133 33.6783 38.8611L33.1568 37.2747Z" fill="#B75C5C"/>
<path d="M35.9033 39.291H37.5732V40.9609H35.9033V39.291Z" fill="#B75C5C"/>
<path d="M36.7384 35.9514H38.4083V37.6213H36.7384V35.9514Z" fill="#B75C5C"/>
<path d="M48.853 9.51611L44.1298 14.2393L41.7682 11.8777L38.2258 15.4201L44.1299 21.3241L52.3956 13.0585L48.853 9.51611ZM40.5873 15.4202L41.7681 14.2394L44.1297 16.601L48.8529 11.8778L50.0336 13.0587L44.1296 18.9628L40.5873 15.4202Z" fill="#B75C5C"/>
<path d="M45.3105 3.73071C38.865 3.73071 33.6211 8.9746 33.6211 15.4202C33.6211 17.4388 34.1421 19.4207 35.13 21.1677V25.6006H39.563C41.3103 26.5885 43.2923 27.1095 45.3105 27.1095C51.7561 27.1095 57 21.8656 57 15.4201C57 8.97449 51.7561 3.73071 45.3105 3.73071ZM45.3105 25.4397C43.5136 25.4397 41.7507 24.9582 40.2126 24.0473L40.0158 23.9308H36.8V20.7148L36.6834 20.518C35.7725 18.9802 35.291 17.2173 35.291 15.4202C35.291 9.8954 39.7858 5.40063 45.3105 5.40063C50.8353 5.40063 55.3301 9.8954 55.3301 15.4202C55.3301 20.9449 50.8353 25.4397 45.3105 25.4397Z" fill="#B75C5C"/>
</g>
<defs>
<clipPath id="clip0">
<rect width="57" height="57" fill="white"/>
</clipPath>
</defs>
</svg>
