<?xml version="1.0" standalone="no"?>
<!DOCTYPE svg PUBLIC "-//W3C//DTD SVG 20010904//EN"
 "http://www.w3.org/TR/2001/REC-SVG-20010904/DTD/svg10.dtd">
<svg version="1.0" xmlns="http://www.w3.org/2000/svg"
 width="136.000000pt" height="135.000000pt" viewBox="0 0 136.000000 135.000000"
 preserveAspectRatio="xMidYMid meet">

<g transform="translate(0.000000,135.000000) scale(0.100000,-0.100000)"
fill="#000000" stroke="none">
<path d="M575 844 c-23 -23 -15 -66 14 -80 32 -16 64 -3 75 29 18 51 -50 90
-89 51z"/>
<path d="M801 846 c-18 -21 -9 -66 14 -82 29 -19 69 2 73 39 4 36 -13 57 -48
57 -15 0 -33 -6 -39 -14z"/>
<path d="M472 744 c-45 -31 -21 -94 36 -94 42 0 62 71 26 97 -23 17 -35 16
-62 -3z"/>
<path d="M690 740 c-11 -11 -20 -26 -20 -33 0 -24 31 -57 55 -57 52 0 74 65
33 94 -30 21 -44 20 -68 -4z"/>
<path d="M922 744 c-41 -28 -22 -94 28 -94 40 0 67 39 49 72 -22 41 -42 47
-77 22z"/>
<path d="M580 707 c0 -10 -5 -27 -11 -38 -8 -16 -7 -25 6 -39 9 -10 23 -36 31
-57 12 -34 13 -35 14 -11 0 14 12 40 26 57 20 24 23 34 15 50 -6 11 -11 28
-11 38 0 14 -8 18 -35 18 -27 0 -35 -4 -35 -18z"/>
<path d="M800 700 c0 -14 -5 -32 -10 -40 -6 -11 -3 -22 14 -40 13 -14 26 -34
28 -45 4 -18 6 -18 15 5 6 14 20 33 31 44 20 17 20 21 7 47 -8 15 -13 34 -10
41 4 11 -5 14 -35 13 -36 0 -40 -3 -40 -25z"/>
<path d="M315 588 c-29 -34 -31 -57 -10 -99 29 -55 100 -62 145 -13 20 20 33
24 82 24 l58 0 0 34 c0 18 -9 45 -20 59 -20 25 -24 26 -125 25 -104 0 -105 0
-130 -30z m55 -23 c12 -14 15 -14 31 1 25 22 37 10 15 -15 -15 -16 -15 -19 -1
-31 8 -7 15 -19 15 -28 0 -12 -5 -11 -23 6 -24 22 -24 22 -42 2 -10 -11 -22
-17 -27 -14 -5 3 -2 14 6 23 20 22 20 30 -1 53 -14 16 -14 18 -1 18 9 0 21 -7
28 -15z"/>
<path d="M656 598 c-9 -12 -16 -39 -16 -60 l0 -38 91 0 92 0 -7 42 c-10 62
-29 78 -92 78 -43 0 -56 -4 -68 -22z"/>
<path d="M886 601 c-10 -11 -20 -38 -23 -60 l-6 -41 92 0 91 0 0 31 c0 32 -15
69 -34 81 -24 16 -102 8 -120 -11z"/>
</g>
</svg>
