<svg width="47" height="47" viewBox="0 0 47 47" fill="none" xmlns="http://www.w3.org/2000/svg">
<g clip-path="url(#clip0)">
<path d="M28.9834 8.61686H27.4168C27.4142 6.45482 25.6621 4.70279 23.5001 4.7002H4.70794C3.84269 4.7002 3.14127 5.40162 3.14127 6.26686H1.56677C1.09347 6.26653 0.645388 6.4802 0.3477 6.84816C0.0500127 7.21612 -0.0653685 7.69894 0.0337886 8.16174L2.04774 17.5617C2.20633 18.2822 2.84302 18.7966 3.58072 18.8002H5.88842L5.96675 19.1425C6.13048 19.8564 6.7642 20.3636 7.4966 20.3669H7.83344V22.7168C7.83344 23.5821 8.53486 24.2835 9.40011 24.2835H12.8914C12.3075 25.3967 11.5737 26.4246 10.7106 27.3385C10.1837 27.888 10.0361 28.6992 10.3357 29.3991C10.6353 30.0989 11.3241 30.5521 12.0854 30.5502H15.6668V41.5168C15.6668 41.9495 15.3161 42.3002 14.8834 42.3002C14.2631 42.2952 13.6673 42.5419 13.2322 42.984C12.7326 43.4724 12.4792 44.1596 12.5421 44.8554C12.6787 46.0892 13.73 47.0174 14.9712 47.0002H24.2834C24.7161 47.0002 25.0668 46.6495 25.0668 46.2168V29.7668H25.8501C26.7153 29.7668 27.4168 29.0654 27.4168 28.2002V21.1502H28.9834C29.8487 21.1502 30.5501 20.4488 30.5501 19.5835V10.1835C30.5501 9.31828 29.8487 8.61686 28.9834 8.61686ZM3.57915 17.2335L1.56677 7.83353H3.44677L5.53827 17.2335H3.57915ZM12.0854 28.9835C11.9002 28.9835 11.7501 28.8334 11.7501 28.6482C11.7535 28.5599 11.7898 28.4761 11.8519 28.4132C13.0039 27.2028 13.9432 25.8066 14.6304 24.2835H15.6668V28.9835H12.0854ZM23.5001 45.4335H14.9712C14.5429 45.451 14.1691 45.146 14.1001 44.723C14.077 44.4876 14.1637 44.2547 14.3351 44.0916C14.4797 43.9452 14.6777 43.864 14.8834 43.8668C16.1813 43.8668 17.2334 42.8147 17.2334 41.5168V24.2835C17.2334 23.4183 16.532 22.7168 15.6668 22.7168H9.40011V20.3669H19.5834V28.2002C19.5834 29.0654 20.2849 29.7668 21.1501 29.7668H23.5001V45.4335ZM25.8501 28.2002H21.1501V15.6669C21.1501 15.2342 20.7994 14.8835 20.3668 14.8835C19.9341 14.8835 19.5834 15.2342 19.5834 15.6669V18.8002H8.62696H8.61677H8.60659H7.49347L4.70794 6.26686H23.5001C24.798 6.26686 25.8501 7.31899 25.8501 8.61686V28.2002ZM27.4168 19.5835V10.1835H28.9834V19.5835H27.4168Z" fill="#B75C5C"/>
<path d="M10.9666 7.83325H9.39994C8.53469 7.83325 7.83327 8.53467 7.83327 9.39992V10.9666C7.83327 11.8318 8.53469 12.5332 9.39994 12.5332H10.9666C11.8318 12.5332 12.5333 11.8318 12.5333 10.9666V9.39992C12.5333 8.53467 11.8318 7.83325 10.9666 7.83325ZM9.39994 10.9666V9.39992H10.9666V10.9666H9.39994Z" fill="#B75C5C"/>
<path d="M18.8 7.83325H14.8834C14.4507 7.83325 14.1 8.18396 14.1 8.61659C14.1 9.04921 14.4507 9.39992 14.8834 9.39992H18.8C19.2326 9.39992 19.5834 9.04921 19.5834 8.61659C19.5834 8.18396 19.2326 7.83325 18.8 7.83325Z" fill="#B75C5C"/>
<path d="M17.2334 10.9666H14.8834C14.4507 10.9666 14.1 11.3173 14.1 11.7499C14.1 12.1825 14.4507 12.5332 14.8834 12.5332H17.2334C17.666 12.5332 18.0167 12.1825 18.0167 11.7499C18.0167 11.3173 17.666 10.9666 17.2334 10.9666Z" fill="#B75C5C"/>
<path d="M41.5166 27.4166V7.83324C41.5134 7.17553 41.2359 6.54899 40.7509 6.10466C40.266 5.66032 39.6176 5.43849 38.9622 5.49264C37.7282 5.62852 36.7995 6.67968 36.8166 7.92097V27.4166C35.6077 28.3232 35.0282 29.8444 35.3274 31.3255C35.6266 32.8067 36.7512 33.9836 38.2172 34.3499C38.528 34.4258 38.8467 34.465 39.1666 34.4666C40.8525 34.4666 42.3492 33.3878 42.8823 31.7885C43.4154 30.1891 42.8653 28.4281 41.5166 27.4166ZM40.622 32.3923C40.0462 32.8488 39.2901 33.0096 38.5783 32.8271C37.7512 32.6204 37.1034 31.9778 36.8902 31.1523C36.6458 30.2256 36.9886 29.2433 37.7566 28.6699C38.1463 28.389 38.379 27.9393 38.3833 27.4589V7.92097C38.3662 7.49261 38.6714 7.11884 39.0945 7.0499H39.1666C39.3778 7.04942 39.5797 7.13649 39.7243 7.29039C39.8707 7.43281 39.9522 7.62903 39.9499 7.83324V27.4792C39.9545 27.9515 40.1848 28.3929 40.5696 28.6668C41.1552 29.1033 41.5045 29.7874 41.5148 30.5178C41.5251 31.2482 41.1952 31.9418 40.622 32.3947V32.3923Z" fill="#B75C5C"/>
<path d="M46.2166 6.26662C46.6492 6.26662 47 5.91591 47 5.48329C47 5.05066 46.6492 4.69995 46.2166 4.69995H44.5873C44.1567 1.87289 41.6259 -0.14863 38.7736 0.0562777C35.9212 0.261185 33.7053 2.62371 33.6833 5.48329V24.9609C31.4357 27.1664 30.7272 30.5034 31.8849 33.4319C33.0426 36.3604 35.8414 38.3109 38.9896 38.3833H39.1666C42.3469 38.3812 45.2103 36.4565 46.4131 33.5124C47.6158 30.5683 46.9191 27.1892 44.65 24.9609V21.9333H46.2166C46.6492 21.9333 47 21.5826 47 21.15C47 20.7173 46.6492 20.3666 46.2166 20.3666H44.65V18.0166H46.2166C46.6492 18.0166 47 17.6659 47 17.2333C47 16.8007 46.6492 16.45 46.2166 16.45H44.65V14.1H46.2166C46.6492 14.1 47 13.7492 47 13.3166C47 12.884 46.6492 12.5333 46.2166 12.5333H44.65V10.1833H46.2166C46.6492 10.1833 47 9.83258 47 9.39995C47 8.96733 46.6492 8.61662 46.2166 8.61662H44.65V6.26662H46.2166ZM45.4333 30.55C45.4389 32.2373 44.7583 33.8544 43.5478 35.0298C42.3496 36.2219 40.7135 36.8681 39.0241 36.8166C35.6258 36.685 32.93 33.9076 32.9 30.5069C32.9125 28.7406 33.671 27.0619 34.9883 25.8852C35.1546 25.7368 35.2498 25.5245 35.25 25.3016V5.48329C35.25 3.32017 37.0035 1.56662 39.1666 1.56662C41.3297 1.56662 43.0833 3.32017 43.0833 5.48329V25.3016C43.0833 25.5248 43.1785 25.7374 43.3449 25.886C44.6736 27.0722 45.4332 28.7688 45.4333 30.55Z" fill="#B75C5C"/>
</g>
<defs>
<clipPath id="clip0">
<rect width="47" height="47" fill="white"/>
</clipPath>
</defs>
</svg>
