<svg width="47" height="48" viewBox="0 0 47 48" fill="none" xmlns="http://www.w3.org/2000/svg">
<path d="M23.5 22.5001C23.5 22.3521 23.4571 22.2074 23.3768 22.0842C23.2964 21.961 23.1821 21.8649 23.0484 21.8079L14.2359 18.0579C14.0548 17.9814 13.8514 17.9814 13.6704 18.0579L4.85789 21.8079C4.72412 21.8649 4.60985 21.961 4.52948 22.0842C4.44911 22.2074 4.40623 22.3521 4.40625 22.5001V29.1436C4.4035 30.2274 4.61121 31.301 5.01736 32.3023C5.4235 33.3036 6.02002 34.2128 6.7724 34.9771L13.4339 41.7804C13.5716 41.921 13.7584 42 13.9531 42C14.1479 42 14.3346 41.921 14.4723 41.7804L21.1338 34.9771C21.8862 34.2128 22.4827 33.3036 22.8889 32.3023C23.295 31.301 23.5027 30.2274 23.5 29.1436V22.5001ZM22.0312 29.1436C22.0335 30.0304 21.8635 30.9088 21.5313 31.7281C21.199 32.5473 20.711 33.2912 20.0954 33.9166L13.9531 40.1896L7.81081 33.9166C7.19528 33.2912 6.70726 32.5473 6.37499 31.7281C6.04272 30.9088 5.87278 30.0304 5.875 29.1436V23.0004L13.9531 19.5624L22.0312 23.0004V29.1436Z" fill="#B75C5C"/>
<path d="M11.8763 29.0677L10.8379 30.1282L13.4339 32.7802C13.5716 32.9208 13.7584 32.9998 13.9531 32.9998C14.1478 32.9998 14.3346 32.9208 14.4723 32.7802L20.7035 26.4165L19.6651 25.356L13.9531 31.1895L11.8763 29.0677Z" fill="#B75C5C"/>
<path d="M44.3576 15.4805C43.6818 15.0828 42.8789 14.9756 42.1256 15.1824C41.3723 15.3891 40.7303 15.8929 40.3406 16.583L36.7201 22.988V9.00049C36.7206 8.60638 36.645 8.21605 36.4975 7.85185C36.3501 7.48766 36.1337 7.15674 35.8608 6.87807C35.588 6.59939 35.264 6.37843 34.9073 6.22784C34.5507 6.07726 34.1685 6 33.7826 6.00049C33.2649 6.00256 32.7574 6.14769 32.3139 6.42049V4.50049C32.3139 3.70484 32.0044 2.94178 31.4535 2.37917C30.9026 1.81656 30.1555 1.50049 29.3764 1.50049C28.5973 1.50049 27.8502 1.81656 27.2993 2.37917C26.7484 2.94178 26.4389 3.70484 26.4389 4.50049V6.41299C25.994 6.14442 25.4869 6.00202 24.9701 6.00049C24.1911 6.00049 23.4439 6.31656 22.893 6.87917C22.3421 7.44178 22.0326 8.20484 22.0326 9.00049V10.913C21.5877 10.6444 21.0807 10.502 20.5639 10.5005C19.7848 10.5005 19.0377 10.8166 18.4868 11.3792C17.9359 11.9418 17.6264 12.7048 17.6264 13.5005V16.358L14.2115 15.0455C14.0452 14.9855 13.8638 14.9855 13.6975 15.0455L1.94748 19.5455C1.80734 19.5998 1.68664 19.6962 1.6014 19.8221C1.51615 19.948 1.47038 20.0974 1.47014 20.2505V29.2505C1.46524 30.712 1.74812 32.1597 2.30195 33.5074C2.85578 34.8551 3.66926 36.0753 4.69405 37.0955L13.4258 46.2755C13.495 46.3468 13.5774 46.4034 13.6681 46.442C13.7589 46.4806 13.8562 46.5005 13.9545 46.5005C14.0528 46.5005 14.1502 46.4806 14.2409 46.442C14.3317 46.4034 14.414 46.3468 14.4833 46.2755L21.2983 39.113V45.7505C21.2983 45.9494 21.3756 46.1402 21.5134 46.2808C21.6511 46.4215 21.8379 46.5005 22.0326 46.5005H36.7201C36.9149 46.5005 37.1017 46.4215 37.2394 46.2808C37.3771 46.1402 37.4545 45.9494 37.4545 45.7505V37.6805L41.0456 30.338C41.098 30.2335 41.1257 30.1179 41.1264 30.0005V27.203L45.4372 19.583C45.824 18.8921 45.9275 18.0731 45.7253 17.3045C45.5231 16.536 45.0314 15.8803 44.3576 15.4805ZM23.5014 9.00049C23.5026 8.60303 23.6577 8.22219 23.9329 7.94114C24.2081 7.66009 24.581 7.50168 24.9701 7.50049C25.3588 7.50343 25.7307 7.66241 26.0055 7.94308C26.2803 8.22375 26.436 8.60357 26.4389 9.00049V20.2505C26.4387 20.0974 26.3929 19.948 26.3076 19.8221C26.2224 19.6962 26.1017 19.5998 25.9615 19.5455L23.5014 18.608V9.00049ZM19.0951 13.5005C19.0963 13.103 19.2514 12.7222 19.5266 12.4411C19.8018 12.1601 20.1747 12.0017 20.5639 12.0005C20.9525 12.0034 21.3244 12.1624 21.5993 12.4431C21.8741 12.7238 22.0298 13.1036 22.0326 13.5005V18.0455L19.0951 16.9205V13.5005ZM13.9545 44.678L5.7442 36.0455C5.74226 36.0455 5.74039 36.0447 5.73901 36.0433C5.73763 36.0419 5.73686 36.04 5.73686 36.038C4.84878 35.1559 4.14343 34.1005 3.66277 32.9345C3.1821 31.7685 2.93593 30.5156 2.93889 29.2505V20.768L13.9545 16.553L24.9701 20.768V29.2505C24.9728 30.5174 24.7257 31.7718 24.2438 32.9392C23.7618 34.1066 23.0548 35.163 22.1648 36.0455L13.9545 44.678ZM44.1594 18.833L39.7531 26.6255C39.6916 26.7406 39.6588 26.8694 39.6576 27.0005V29.8205L36.0665 37.163C36.0141 37.2675 35.9865 37.3831 35.9858 37.5005V45.0005H22.767V37.568L23.215 37.0955C24.2398 36.0753 25.0533 34.8551 25.6071 33.5074C26.1609 32.1597 26.4438 30.712 26.4389 29.2505V21.7505H27.9076V4.50049C27.9076 4.10266 28.0624 3.72113 28.3378 3.43983C28.6133 3.15852 28.9869 3.00049 29.3764 3.00049C29.7659 3.00049 30.1395 3.15852 30.415 3.43983C30.6904 3.72113 30.8451 4.10266 30.8451 4.50049V21.7505H32.3139V9.00049C32.3151 8.60303 32.4702 8.22219 32.7454 7.94114C33.0206 7.66009 33.3935 7.50168 33.7826 7.50049C34.1713 7.50343 34.5432 7.66241 34.818 7.94308C35.0928 8.22375 35.2485 8.60357 35.2514 9.00049V24.6005C33.4742 25.598 30.1108 27.8705 30.1108 30.7505H31.5795C31.5795 28.433 35.4056 26.123 36.8817 25.433C37.0192 25.3661 37.1342 25.2591 37.2122 25.1255L41.6184 17.333C41.7139 17.1616 41.8415 17.0111 41.994 16.8901C42.1465 16.7692 42.3208 16.6801 42.507 16.628C42.7251 16.5703 42.9532 16.5643 43.1739 16.6103C43.3946 16.6563 43.6021 16.7532 43.7806 16.8935C43.9591 17.0338 44.1038 17.2139 44.2038 17.4201C44.3038 17.6262 44.3564 17.8529 44.3576 18.083C44.359 18.3467 44.2905 18.6058 44.1594 18.833Z" fill="#B75C5C"/>
<path d="M1.98648 7.46699L4.98346 8.41049L5.90731 11.4705C5.95341 11.6239 6.04648 11.7582 6.17285 11.8536C6.29923 11.949 6.45223 12.0005 6.60937 12.0005C6.76652 12.0005 6.91952 11.949 7.04589 11.8536C7.17226 11.7582 7.26533 11.6239 7.31143 11.4705L8.23528 8.41049L11.2359 7.46699C11.3862 7.41991 11.5176 7.32485 11.6111 7.19579C11.7045 7.06673 11.7549 6.91047 11.7549 6.74999C11.7549 6.5895 11.7045 6.43324 11.6111 6.30418C11.5176 6.17512 11.3862 6.08007 11.2359 6.03299L8.23528 5.08949L7.31143 2.02949C7.26533 1.87606 7.17226 1.74178 7.04589 1.64639C6.91952 1.55099 6.76652 1.49951 6.60937 1.49951C6.45223 1.49951 6.29923 1.55099 6.17285 1.64639C6.04648 1.74178 5.95341 1.87606 5.90731 2.02949L4.98346 5.08949L1.98648 6.03299C1.83625 6.08007 1.70477 6.17512 1.61136 6.30418C1.51795 6.43324 1.46754 6.5895 1.46754 6.74999C1.46754 6.91047 1.51795 7.06673 1.61136 7.19579C1.70477 7.32485 1.83625 7.41991 1.98648 7.46699ZM5.7876 6.40649C5.90202 6.37042 6.00606 6.30632 6.09067 6.21978C6.17528 6.13324 6.23788 6.02689 6.27303 5.90999L6.60937 4.79549L6.94571 5.90999C6.98086 6.02689 7.04346 6.13324 7.12807 6.21978C7.21268 6.30632 7.31672 6.37042 7.43114 6.40649L8.52315 6.74999L7.43114 7.09349C7.31672 7.12956 7.21268 7.19365 7.12807 7.28019C7.04346 7.36673 6.98086 7.47308 6.94571 7.58999L6.60937 8.70449L6.27303 7.58999C6.23788 7.47308 6.17528 7.36673 6.09067 7.28019C6.00606 7.19365 5.90202 7.12956 5.7876 7.09349L4.69559 6.74999L5.7876 6.40649Z" fill="#B75C5C"/>
<path d="M42.5937 1.50024H44.0625V3.00024H42.5937V1.50024Z" fill="#B75C5C"/>
<path d="M41.125 3H42.5937V4.5H41.125V3Z" fill="#B75C5C"/>
<path d="M44.0625 3H45.5312V4.5H44.0625V3Z" fill="#B75C5C"/>
<path d="M42.5937 4.5H44.0625V6H42.5937V4.5Z" fill="#B75C5C"/>
<path d="M18.3594 1.50024H19.8281V3.00024H18.3594V1.50024Z" fill="#B75C5C"/>
<path d="M16.8906 3H18.3594V4.5H16.8906V3Z" fill="#B75C5C"/>
<path d="M19.8281 3H21.2969V4.5H19.8281V3Z" fill="#B75C5C"/>
<path d="M18.3594 4.5H19.8281V6H18.3594V4.5Z" fill="#B75C5C"/>
<path d="M13.2187 9H14.6875V10.5H13.2187V9Z" fill="#B75C5C"/>
<path d="M11.75 10.5H13.2188V12H11.75V10.5Z" fill="#B75C5C"/>
<path d="M14.6875 10.5H16.1562V12H14.6875V10.5Z" fill="#B75C5C"/>
<path d="M13.2187 12H14.6875V13.5H13.2187V12Z" fill="#B75C5C"/>
<path d="M39.6562 9H41.125V10.5H39.6562V9Z" fill="#B75C5C"/>
<path d="M38.1875 10.5H39.6562V12H38.1875V10.5Z" fill="#B75C5C"/>
<path d="M41.125 10.5H42.5937V12H41.125V10.5Z" fill="#B75C5C"/>
<path d="M39.6562 12H41.125V13.5H39.6562V12Z" fill="#B75C5C"/>
</svg>
