<?xml version="1.0" standalone="no"?>
<!DOCTYPE svg PUBLIC "-//W3C//DTD SVG 20010904//EN"
 "http://www.w3.org/TR/2001/REC-SVG-20010904/DTD/svg10.dtd">
<svg version="1.0" xmlns="http://www.w3.org/2000/svg"
 width="129.000000pt" height="124.000000pt" viewBox="0 0 129.000000 124.000000"
 preserveAspectRatio="xMidYMid meet">

<g transform="translate(0.000000,124.000000) scale(0.100000,-0.100000)"
fill="#000000" stroke="none">
<path d="M532 1069 c-57 -11 -102 -39 -109 -68 -3 -13 -20 -36 -37 -52 -30
-27 -31 -30 -31 -111 1 -99 10 -130 70 -223 39 -59 45 -77 45 -121 0 -46 -4
-56 -34 -86 -42 -42 -56 -90 -56 -190 0 -73 1 -78 28 -97 40 -28 174 -61 246
-61 53 0 190 29 215 45 12 7 -14 116 -40 166 -11 22 -40 60 -65 83 -36 35 -44
49 -44 78 0 40 14 48 86 48 44 0 60 12 88 66 26 54 30 108 11 156 -10 24 -21
70 -26 103 -10 80 -34 204 -40 207 -41 28 -99 48 -162 57 -87 12 -85 12 -145
0z m274 -119 c2 0 15 -20 29 -43 15 -27 25 -59 25 -84 0 -22 7 -60 15 -83 8
-23 15 -45 15 -47 0 -8 -67 5 -147 29 -77 22 -91 40 -56 69 26 22 43 74 43
134 l0 55 36 -15 c20 -8 38 -15 40 -15z m-174 -231 c14 -31 28 -38 28 -14 0
16 36 20 59 6 11 -7 11 -15 2 -44 -21 -63 -34 -64 -131 -17 -27 13 -35 56 -17
84 20 31 41 25 59 -15z m-64 -71 c6 -6 34 -21 62 -33 28 -12 60 -35 73 -52 13
-18 34 -41 48 -52 l24 -20 -32 -1 c-32 0 -33 -1 -33 -46 0 -43 -1 -46 -22 -39
-50 15 -105 24 -150 25 l-46 0 -4 58 c-4 49 -1 61 19 82 12 14 26 40 29 58 7
35 13 39 32 20z"/>
<path d="M813 803 c9 -2 23 -2 30 0 6 3 -1 5 -18 5 -16 0 -22 -2 -12 -5z"/>
<path d="M812 749 c2 -6 8 -10 13 -10 5 0 11 4 13 10 2 6 -4 11 -13 11 -9 0
-15 -5 -13 -11z"/>
</g>
</svg>
