<svg width="47" height="48" viewBox="0 0 47 48" fill="none" xmlns="http://www.w3.org/2000/svg">
<g clip-path="url(#clip0)">
<path d="M46.1894 17.7914C44.5656 11.6019 40.6789 6.42856 35.2451 3.22453C29.8114 0.0204894 23.4813 -0.83067 17.4206 0.82758C11.3599 2.48602 6.29442 6.45551 3.15722 12.0048C0.0199392 17.5541 -0.81358 24.019 0.810307 30.2086C2.4341 36.3981 6.32089 41.5714 11.7546 44.7755C15.3742 46.9098 19.3911 48 23.4616 48C25.5017 48 27.5557 47.726 29.5791 47.1723C35.6396 45.5139 40.7051 41.5445 43.8424 35.9952C46.9797 30.4458 47.8132 23.9809 46.1894 17.7914ZM42.6523 35.2933C39.6987 40.518 34.9295 44.2553 29.2234 45.8166C23.5172 47.3781 17.5575 46.5765 12.4416 43.56C7.32573 40.5434 3.66642 35.6728 2.13763 29.8453C0.608752 24.0178 1.39353 17.9312 4.34722 12.7065C7.30091 7.48173 12.07 3.74456 17.7761 2.18324C19.6816 1.6618 21.6147 1.40394 23.5357 1.40394C27.3677 1.40394 31.1504 2.43053 34.5579 4.43984C39.6737 7.45637 43.3331 12.327 44.8619 18.1545C46.3908 23.982 45.6061 30.0687 42.6523 35.2933Z" fill="#B75C5C"/>
<path d="M35.92 9.33848C35.5502 9.01231 35.0617 8.87308 34.58 8.95617C34.0982 9.03935 33.6817 9.33483 33.4374 9.767L30.355 15.2192C30.2999 15.2176 30.245 15.2151 30.1897 15.2151H26.7391L30.7375 8.14262C30.9804 7.71288 31.0237 7.19921 30.8561 6.73335C30.6884 6.26721 30.3295 5.9039 29.8715 5.73679C27.7296 4.95533 25.4951 4.57602 23.2261 4.61195C22.8466 4.61785 22.5437 4.93672 22.5495 5.32426C22.5552 5.70816 22.8617 6.01533 23.2364 6.01533C23.2399 6.01533 23.2434 6.01533 23.247 6.01524C25.3483 5.98324 27.4228 6.33364 29.4091 7.05849C29.5091 7.09498 29.5504 7.17357 29.5661 7.21727C29.5817 7.26068 29.6001 7.3476 29.5473 7.44089L25.1347 15.246C24.6667 15.3095 24.2204 15.477 23.8199 15.7397L22.5943 15.2323C21.899 14.9459 21.1664 14.8007 20.4165 14.8007H18.1869C16.6643 14.8007 15.2242 15.3972 14.1316 16.4801L13.7841 16.8246L8.77722 14.1039C11.1456 10.4228 14.7191 7.78586 18.9429 6.63005C19.4306 6.49654 19.9348 6.38229 20.4414 6.29051C20.8151 6.22277 21.0642 5.85842 20.9979 5.47687C20.9317 5.09531 20.5751 4.84119 20.2012 4.90855C19.6558 5.00745 19.1128 5.13058 18.5872 5.27439C13.6737 6.61892 9.57464 9.82333 7.04531 14.2975C4.51599 18.7717 3.84793 23.9993 5.16445 29.0172C6.16782 32.8415 8.25436 36.2127 11.1985 38.7665C11.4969 39.0253 11.8708 39.1637 12.2552 39.1637C12.3485 39.1637 12.4423 39.1556 12.5358 39.139C13.0147 39.0542 13.4286 38.7592 13.6715 38.3295L17.4837 31.5862C17.6735 31.2505 17.5609 30.8214 17.2322 30.6276C16.9035 30.4337 16.4833 30.5487 16.2936 30.8844L15.6401 32.0404L13.9671 30.7356C13.3333 30.2412 12.8333 29.5835 12.5213 28.8338L12.1469 27.9342C12.091 27.7998 11.9954 27.6866 11.8735 27.6103L5.88033 23.8615C5.89297 20.8892 6.63158 17.9618 8.06619 15.3072L13.5806 18.3037C13.6824 18.359 13.7932 18.3859 13.9032 18.3859C14.0778 18.3859 14.2506 18.318 14.382 18.1877L15.0888 17.4871C15.9234 16.6597 17.0237 16.2042 18.1869 16.2042H20.4165C20.9894 16.2042 21.5492 16.3151 22.0803 16.5339L22.4773 16.6974L20.1018 18.4037C19.0616 19.1508 18.42 20.3227 18.3413 21.6189L18.2593 22.9703C18.2107 23.772 18.4918 24.5674 19.0304 25.1526C19.1329 25.2641 19.2436 25.3663 19.3608 25.4591L17.7577 28.2947C17.568 28.6303 17.6806 29.0595 18.0092 29.2533C18.1174 29.3171 18.2356 29.3474 18.3521 29.3474C18.5896 29.3474 18.8206 29.2216 18.9478 28.9965L20.6254 26.029C20.7865 26.0579 20.9502 26.0735 21.1154 26.0735C22.4628 26.0735 23.6408 25.0958 23.9164 23.7489L24.0785 22.9568L26.2133 22.5451L16.3989 39.9053C16.1546 40.3374 16.1122 40.8535 16.2825 41.3212C16.453 41.789 16.8153 42.1513 17.2768 42.3153C19.2915 43.0315 21.3857 43.3909 23.4876 43.3908C25.1366 43.3908 26.7904 43.1694 28.4125 42.7256C32.8613 41.5083 36.7198 38.6853 39.2773 34.7766C39.4881 34.4544 39.4033 34.0186 39.0878 33.8033C38.7723 33.588 38.3455 33.6746 38.1347 33.9969C35.7625 37.6224 32.1834 40.2408 28.0569 41.37C24.6341 42.3065 21.0627 42.1751 17.7285 40.9899C17.6282 40.9542 17.5866 40.8756 17.5707 40.832C17.5548 40.7883 17.536 40.701 17.5891 40.6071L19.6609 36.9425L22.8649 39.4416C23.256 39.7466 23.7194 39.8952 24.1804 39.8951C24.7891 39.8951 25.3934 39.6359 25.8199 39.1356C26.0897 38.8193 26.2532 38.4456 26.3182 38.0592C26.5155 38.115 26.7177 38.1444 26.9199 38.1444C27.5064 38.1443 28.0901 37.911 28.5307 37.4534C28.79 37.1841 28.9758 36.8626 29.0803 36.5127C29.3899 36.6532 29.7271 36.7273 30.0749 36.7273C30.093 36.7273 30.1112 36.7271 30.1294 36.7267C30.7873 36.7122 31.3998 36.4364 31.8539 35.9501C32.1922 35.588 32.4109 35.1437 32.4944 34.664C32.7563 34.7555 33.0298 34.8027 33.3034 34.8027C33.9771 34.8027 34.6487 34.5274 35.134 33.9867C35.729 33.3238 35.917 32.4337 35.7072 31.628L37.544 29.8346C38.4484 28.9516 39.0943 27.8444 39.4237 26.6172L41.0312 25.6493C40.8512 27.6489 40.3455 29.6176 39.5198 31.4634C39.3621 31.8159 39.514 32.2322 39.8592 32.3932C39.9517 32.4364 40.0487 32.4569 40.1443 32.4569C40.4049 32.4569 40.6542 32.3045 40.7697 32.0466C42.5961 27.9642 42.9747 23.3246 41.8355 18.9828C40.8468 15.2144 38.8012 11.8795 35.92 9.33848ZM10.9682 28.6899L11.2565 29.3828C11.6615 30.3558 12.3103 31.2093 13.133 31.8509L14.9472 33.2659L12.4813 37.6276C12.4286 37.7209 12.3458 37.7481 12.3012 37.756C12.2562 37.7639 12.169 37.7668 12.088 37.6966C9.35769 35.3283 7.4225 32.2013 6.49186 28.6538C6.22224 27.6259 6.04258 26.5887 5.95106 25.5515L10.9682 28.6899ZM34.6275 10.4687C34.6806 10.3748 34.764 10.3478 34.809 10.34C34.8539 10.3324 34.9414 10.3298 35.0218 10.4006C36.4357 11.6476 37.6326 13.1009 38.5821 14.7109L35.0615 17.2161C34.872 17.3509 34.6159 17.3277 34.4527 17.1611L34.2142 16.9175C33.5327 16.2215 32.7085 15.7246 31.8093 15.4534L34.6275 10.4687ZM34.1209 33.0382C33.717 33.4883 33.0236 33.5259 32.575 33.1221L29.3562 30.2237L29.3398 30.2089C29.3398 30.2089 29.3397 30.2089 29.3397 30.2088L28.9008 29.8136C28.616 29.5572 28.1819 29.5851 27.931 29.8759C27.6801 30.1666 27.7074 30.61 27.992 30.8663L28.4303 31.2609C28.4305 31.261 28.4306 31.2612 28.4308 31.2613L30.7925 33.3891C31.0153 33.5898 31.1451 33.8674 31.1579 34.1706C31.1706 34.4738 31.0647 34.7617 30.8597 34.9812C30.6595 35.1955 30.3897 35.317 30.0998 35.3234C29.811 35.3303 29.5351 35.2202 29.3261 35.015L28.6425 34.3437C28.5823 34.2716 28.5179 34.2022 28.4483 34.137L28.0825 33.7938L26.6492 32.3864C26.3757 32.1178 25.9407 32.1265 25.6777 32.4059C25.4147 32.6853 25.4232 33.1294 25.6968 33.398L27.6278 35.2943C27.7376 35.4432 27.7997 35.6223 27.8045 35.8129C27.8106 36.06 27.7206 36.2931 27.5509 36.4694C27.2333 36.7994 26.7258 36.8316 26.3706 36.5441C26.3671 36.5413 26.3637 36.5385 26.3602 36.5358L25.1246 35.5746L24.127 34.683C23.8414 34.4276 23.4075 34.4571 23.1575 34.7488C22.9076 35.0405 22.9364 35.4838 23.222 35.739L24.7076 37.0671C25.0374 37.3619 25.0716 37.8764 24.7837 38.214C24.5085 38.5367 24.0321 38.586 23.6991 38.3263L20.3538 35.717L26.8354 24.2521L34.0781 31.4673C34.5081 31.8958 34.527 32.5858 34.1209 33.0382ZM38.4784 25.557C38.3155 25.6551 38.1994 25.8173 38.1574 26.0056C37.9169 27.0831 37.3765 28.0562 36.5943 28.82L34.9754 30.4006L27.5443 22.9976L27.9945 22.2014L28.4402 22.1154C28.8131 22.0435 29.0583 21.6765 28.9879 21.2957C28.9175 20.9149 28.5582 20.6645 28.1853 20.7364L23.3726 21.6644C23.0995 21.7171 22.8843 21.9326 22.8275 22.2104L22.5715 23.4615C22.4282 24.1616 21.816 24.6698 21.1156 24.6698C20.7009 24.6698 20.3159 24.4998 20.0319 24.1912C19.7478 23.8826 19.6055 23.4798 19.6312 23.057L19.7132 21.7055C19.7659 20.8371 20.1957 20.052 20.8926 19.5516L24.4948 16.9642C24.8098 16.7381 25.1796 16.6186 25.5646 16.6186H30.1898C31.3431 16.6186 32.4272 17.0772 33.2426 17.91L33.4811 18.1536C34.1158 18.8017 35.1108 18.8917 35.8472 18.3678L39.2477 15.948C39.7747 17.026 40.1978 18.1628 40.5082 19.3459C40.9064 20.8638 41.1045 22.4209 41.1063 23.9747L38.4784 25.557Z" fill="#B75C5C"/>
</g>
<defs>
<clipPath id="clip0">
<rect width="47" height="48" fill="white"/>
</clipPath>
</defs>
</svg>
