<svg width="47" height="47" viewBox="0 0 47 47" fill="none" xmlns="http://www.w3.org/2000/svg">
<path d="M40.0319 43.6097C39.6675 43.6098 39.3072 43.5319 38.9754 43.3811C38.6435 43.2304 38.3478 43.0103 38.1081 42.7358C37.7653 43.1277 37.3111 43.4057 36.8062 43.5327C36.3012 43.6596 35.7695 43.6295 35.2821 43.4463C34.7948 43.2631 34.3749 42.9355 34.0786 42.5074C33.7823 42.0792 33.6237 41.5708 33.624 41.0502V32.3285C33.2882 32.4859 32.9181 32.556 32.5479 32.5322C32.1778 32.5084 31.8197 32.3916 31.5067 32.1925C31.1938 31.9934 30.9362 31.7185 30.7579 31.3933C30.5795 31.0681 30.4862 30.7031 30.4865 30.3322V23.1298C30.4878 22.004 30.9356 20.9246 31.7317 20.1286C32.5278 19.3325 33.6072 18.8846 34.733 18.8833H41.4826C42.6082 18.8855 43.6871 19.3336 44.4831 20.1294C45.2791 20.9253 45.7274 22.0042 45.7297 23.1298V30.3322C45.7299 30.7032 45.6365 31.0681 45.458 31.3933C45.2796 31.7185 45.0219 31.9934 44.709 32.1924C44.396 32.3915 44.0379 32.5084 43.6677 32.5321C43.2976 32.5559 42.9274 32.4859 42.5915 32.3285V41.0502C42.5907 41.7287 42.3207 42.3793 41.8409 42.8591C41.3611 43.339 40.7105 43.6089 40.0319 43.6097ZM38.7432 41.0502C38.7394 41.2218 38.7699 41.3925 38.833 41.5523C38.8961 41.712 38.9904 41.8575 39.1105 41.9803C39.2306 42.103 39.3739 42.2006 39.5322 42.2672C39.6905 42.3338 39.8605 42.3681 40.0322 42.3681C40.204 42.3681 40.374 42.3338 40.5322 42.2672C40.6905 42.2006 40.8339 42.103 40.954 41.9803C41.0741 41.8575 41.1684 41.712 41.2315 41.5523C41.2945 41.3925 41.3251 41.2218 41.3212 41.0502V25.194C41.3212 25.0256 41.3882 24.864 41.5073 24.7449C41.6264 24.6258 41.7879 24.5589 41.9564 24.5589C42.1248 24.5589 42.2864 24.6258 42.4055 24.7449C42.5246 24.864 42.5915 25.0256 42.5915 25.194V30.3322C42.5883 30.4569 42.61 30.581 42.6555 30.6972C42.701 30.8134 42.7692 30.9192 42.8563 31.0086C42.9433 31.0979 43.0474 31.1689 43.1623 31.2174C43.2773 31.2659 43.4007 31.2909 43.5255 31.2909C43.6502 31.2909 43.7737 31.2659 43.8886 31.2174C44.0036 31.1689 44.1076 31.0979 44.1947 31.0086C44.2817 30.9192 44.35 30.8134 44.3955 30.6972C44.4409 30.581 44.4627 30.4569 44.4594 30.3322V23.1298C44.4584 22.3407 44.1445 21.5841 43.5864 21.0262C43.0283 20.4682 42.2717 20.1544 41.4826 20.1536H34.733C33.9439 20.1544 33.1874 20.4682 32.6294 21.0262C32.0714 21.5842 31.7576 22.3407 31.7567 23.1298V30.3322C31.7567 30.5799 31.8551 30.8173 32.0302 30.9924C32.2053 31.1675 32.4428 31.2659 32.6904 31.2659C32.938 31.2659 33.1755 31.1675 33.3506 30.9924C33.5257 30.8173 33.624 30.5799 33.624 30.3322V25.194C33.624 25.0256 33.691 24.864 33.8101 24.7449C33.9292 24.6258 34.0907 24.5589 34.2592 24.5589C34.4276 24.5589 34.5892 24.6258 34.7083 24.7449C34.8274 24.864 34.8943 25.0256 34.8943 25.194V41.0502C34.8943 41.3921 35.0302 41.72 35.2719 41.9618C35.5137 42.2036 35.8417 42.3395 36.1836 42.3395C36.5256 42.3395 36.8535 42.2036 37.0953 41.9618C37.3371 41.72 37.473 41.3921 37.473 41.0502V33.0525C37.473 32.8841 37.5399 32.7225 37.659 32.6034C37.7781 32.4843 37.9396 32.4174 38.1081 32.4174C38.2765 32.4174 38.4381 32.4843 38.5572 32.6034C38.6763 32.7225 38.7432 32.8841 38.7432 33.0525V41.0502Z" fill="#B75C5C"/>
<path d="M38.1501 20.1535H38.0611C36.941 20.1296 35.8756 19.665 35.0959 18.8605C34.3162 18.056 33.8853 16.9764 33.8965 15.8562V15.5278C33.8853 14.4062 34.3173 13.3256 35.0986 12.5208C35.8799 11.7161 36.9473 11.2523 38.0688 11.2305H38.1437C39.2657 11.2515 40.3339 11.7149 41.1159 12.5197C41.8979 13.3245 42.3303 14.4057 42.3191 15.5278V15.8562C42.3304 16.9772 41.8988 18.0574 41.1182 18.862C40.3375 19.6667 39.2709 20.1308 38.1501 20.1535ZM38.1405 12.5007H38.0719C37.2865 12.5207 36.5408 12.8499 35.9968 13.4168C35.4528 13.9836 35.1545 14.7422 35.1668 15.5278V15.8562C35.1555 16.6413 35.454 17.3993 35.9977 17.9659C36.5413 18.5325 37.2863 18.8621 38.0713 18.8832H38.1399C38.9256 18.8632 39.6718 18.5342 40.2164 17.9674C40.761 17.4007 41.0601 16.6421 41.0488 15.8562V15.5278C41.0601 14.742 40.7611 13.9834 40.2166 13.4167C39.6721 12.85 38.9261 12.5209 38.1405 12.5007Z" fill="#B75C5C"/>
<path d="M10.8157 43.6097C10.4513 43.6098 10.091 43.5319 9.75916 43.3811C9.42732 43.2304 9.13161 43.0103 8.89189 42.7358C8.54912 43.1277 8.09492 43.4057 7.58996 43.5327C7.085 43.6596 6.55332 43.6295 6.06594 43.4463C5.57857 43.2631 5.1587 42.9355 4.86242 42.5074C4.56614 42.0792 4.40755 41.5708 4.40784 41.0502V32.3285C4.07201 32.4859 3.70187 32.556 3.33174 32.5322C2.96161 32.5084 2.60347 32.3916 2.29054 32.1925C1.97761 31.9934 1.72003 31.7185 1.54167 31.3933C1.36331 31.0681 1.26996 30.7031 1.27027 30.3322V23.1298C1.27162 22.004 1.71945 20.9246 2.51553 20.1286C3.31162 19.3325 4.39095 18.8846 5.51679 18.8833H12.2664C13.392 18.8855 14.4709 19.3336 15.2669 20.1294C16.0629 20.9253 16.5112 22.0042 16.5135 23.1298V30.3322C16.5137 30.7032 16.4203 31.0681 16.2418 31.3933C16.0634 31.7185 15.8057 31.9934 15.4928 32.1924C15.1798 32.3915 14.8217 32.5084 14.4515 32.5321C14.0814 32.5559 13.7112 32.4859 13.3753 32.3285V41.0502C13.3745 41.7287 13.1045 42.3793 12.6247 42.8591C12.1449 43.339 11.4943 43.6089 10.8157 43.6097ZM9.52703 33.0525V41.0502C9.52322 41.2218 9.55374 41.3925 9.61681 41.5523C9.67987 41.712 9.77421 41.8575 9.89429 41.9803C10.0144 42.103 10.1577 42.2006 10.316 42.2672C10.4743 42.3338 10.6443 42.3681 10.816 42.3681C10.9878 42.3681 11.1578 42.3338 11.316 42.2672C11.4743 42.2006 11.6177 42.103 11.7378 41.9803C11.8579 41.8575 11.9522 41.712 12.0153 41.5523C12.0783 41.3925 12.1089 41.2218 12.105 41.0502V25.194C12.105 25.0256 12.172 24.864 12.2911 24.7449C12.4102 24.6258 12.5717 24.5589 12.7402 24.5589C12.9086 24.5589 13.0702 24.6258 13.1893 24.7449C13.3084 24.864 13.3753 25.0256 13.3753 25.194V30.3322C13.3721 30.4569 13.3938 30.581 13.4393 30.6972C13.4848 30.8134 13.553 30.9192 13.6401 31.0086C13.7271 31.0979 13.8312 31.1689 13.9461 31.2174C14.0611 31.2659 14.1845 31.2909 14.3093 31.2909C14.434 31.2909 14.5575 31.2659 14.6724 31.2174C14.7874 31.1689 14.8914 31.0979 14.9785 31.0086C15.0655 30.9192 15.1338 30.8134 15.1793 30.6972C15.2247 30.581 15.2465 30.4569 15.2432 30.3322V23.1298C15.2422 22.3407 14.9283 21.5841 14.3702 21.0262C13.8121 20.4682 13.0555 20.1544 12.2664 20.1536H5.51679C4.7277 20.1544 3.97116 20.4682 3.41319 21.0262C2.85522 21.5842 2.54138 22.3407 2.54054 23.1298V30.3322C2.54054 30.5799 2.63891 30.8173 2.814 30.9924C2.98909 31.1675 3.22657 31.2659 3.47419 31.2659C3.72181 31.2659 3.95929 31.1675 4.13438 30.9924C4.30947 30.8173 4.40784 30.5799 4.40784 30.3322V25.194C4.40784 25.0256 4.47476 24.864 4.59387 24.7449C4.71298 24.6258 4.87453 24.5589 5.04298 24.5589C5.21142 24.5589 5.37297 24.6258 5.49208 24.7449C5.6112 24.864 5.67811 25.0256 5.67811 25.194V41.0502C5.67811 41.3921 5.81395 41.72 6.05575 41.9618C6.29754 42.2036 6.62548 42.3395 6.96743 42.3395C7.30939 42.3395 7.63733 42.2036 7.87913 41.9618C8.12092 41.72 8.25676 41.3921 8.25676 41.0502V33.0525C8.25676 32.8841 8.32368 32.7225 8.44279 32.6034C8.5619 32.4843 8.72345 32.4174 8.89189 32.4174C9.06034 32.4174 9.22189 32.4843 9.341 32.6034C9.46011 32.7225 9.52703 32.8841 9.52703 33.0525Z" fill="#B75C5C"/>
<path d="M8.93381 20.1535H8.84552C7.72544 20.1296 6.65995 19.665 5.88028 18.8605C5.1006 18.056 4.66965 16.9764 4.68094 15.8562V15.5278C4.66968 14.4063 5.10159 13.3258 5.88276 12.521C6.66393 11.7163 7.7312 11.2525 8.85251 11.2305H8.92745C10.0494 11.2515 11.1177 11.7149 11.8997 12.5197C12.6816 13.3245 13.1141 14.4057 13.1028 15.5278V15.8562C13.1141 16.9772 12.6825 18.0574 11.9019 18.862C11.1213 19.6667 10.0547 20.1308 8.93381 20.1535ZM8.87029 18.8832H8.92809C9.71304 18.8621 10.4581 18.5325 11.0017 17.9659C11.5454 17.3993 11.8439 16.6413 11.8326 15.8562V15.5278C11.8439 14.742 11.5448 13.9834 11.0004 13.4167C10.4559 12.85 9.7099 12.5209 8.92428 12.5007H8.85568C8.0704 12.5209 7.32481 12.8502 6.78095 13.417C6.23708 13.9838 5.9389 14.7424 5.95121 15.5278V15.8562C5.9399 16.6413 6.23841 17.3993 6.78207 17.9659C7.32572 18.5325 8.07073 18.8621 8.85568 18.8832H8.87029Z" fill="#B75C5C"/>
<path d="M31.0759 39.8313H15.9235C15.755 39.8313 15.5935 39.7644 15.4744 39.6453C15.3553 39.5262 15.2883 39.3646 15.2883 39.1962C15.2883 39.0277 15.3553 38.8662 15.4744 38.7471C15.5935 38.628 15.755 38.561 15.9235 38.561H31.0759C31.2443 38.561 31.4059 38.628 31.525 38.7471C31.6441 38.8662 31.711 39.0277 31.711 39.1962C31.711 39.3646 31.6441 39.5262 31.525 39.6453C31.4059 39.7644 31.2443 39.8313 31.0759 39.8313Z" fill="#B75C5C"/>
<path d="M29.0574 41.8498C28.9318 41.8497 28.8091 41.8125 28.7046 41.7427C28.6002 41.6729 28.5188 41.5737 28.4708 41.4577C28.4227 41.3416 28.4101 41.214 28.4346 41.0908C28.4591 40.9676 28.5196 40.8544 28.6084 40.7656L30.1778 39.1962L28.6084 37.6274C28.4927 37.5076 28.4287 37.3472 28.4301 37.1806C28.4316 37.0141 28.4984 36.8548 28.6161 36.7371C28.7339 36.6193 28.8932 36.5525 29.0597 36.551C29.2262 36.5496 29.3867 36.6136 29.5065 36.7293L31.5249 38.7471C31.644 38.8662 31.7109 39.0278 31.7109 39.1962C31.7109 39.3646 31.644 39.5261 31.5249 39.6452L29.5065 41.665C29.3872 41.7836 29.2257 41.8501 29.0574 41.8498Z" fill="#B75C5C"/>
<path d="M17.9419 41.8498C17.7735 41.8497 17.612 41.7828 17.4929 41.6637L15.4744 39.6452C15.3554 39.5261 15.2885 39.3646 15.2885 39.1962C15.2885 39.0277 15.3554 38.8662 15.4744 38.7471L17.4929 36.7293C17.5515 36.6686 17.6216 36.6203 17.6991 36.587C17.7766 36.5537 17.8599 36.5362 17.9442 36.5354C18.0286 36.5347 18.1122 36.5508 18.1903 36.5827C18.2683 36.6146 18.3392 36.6618 18.3989 36.7214C18.4585 36.7811 18.5057 36.852 18.5376 36.93C18.5695 37.0081 18.5856 37.0917 18.5849 37.1761C18.5841 37.2604 18.5666 37.3437 18.5333 37.4212C18.5 37.4987 18.4516 37.5688 18.391 37.6274L16.8216 39.1962L18.391 40.7656C18.4798 40.8544 18.5403 40.9676 18.5647 41.0908C18.5892 41.2139 18.5767 41.3416 18.5286 41.4577C18.4805 41.5737 18.3992 41.6729 18.2947 41.7427C18.1903 41.8125 18.0675 41.8497 17.9419 41.8498Z" fill="#B75C5C"/>
<path d="M23.5 18.9512C21.9612 18.9512 20.4569 18.4949 19.1775 17.64C17.898 16.785 16.9007 15.5699 16.3119 14.1482C15.723 12.7265 15.5689 11.1622 15.8691 9.65291C16.1693 8.14366 16.9103 6.75732 17.9984 5.66921C19.0865 4.5811 20.4729 3.84009 21.9821 3.53988C23.4914 3.23967 25.0558 3.39375 26.4774 3.98263C27.8991 4.57151 29.1143 5.56875 29.9692 6.84823C30.8241 8.12771 31.2804 9.63197 31.2804 11.1708C31.2782 13.2336 30.4578 15.2113 28.9992 16.67C27.5405 18.1286 25.5628 18.949 23.5 18.9512ZM23.5 4.66065C22.2124 4.66065 20.9538 5.04247 19.8832 5.75781C18.8126 6.47315 17.9782 7.4899 17.4854 8.67947C16.9927 9.86904 16.8638 11.178 17.115 12.4409C17.3662 13.7037 17.9862 14.8637 18.8967 15.7742C19.8071 16.6846 20.9671 17.3046 22.2299 17.5558C23.4928 17.807 24.8018 17.6781 25.9913 17.1854C27.1809 16.6926 28.1977 15.8582 28.913 14.7876C29.6283 13.717 30.0101 12.4584 30.0101 11.1708C30.0081 9.44481 29.3216 7.79011 28.1011 6.56966C26.8807 5.34921 25.226 4.66267 23.5 4.66065Z" fill="#B75C5C"/>
<path d="M22.1389 14.0174C21.9705 14.0174 21.809 13.9505 21.6899 13.8313L19.989 12.1311C19.8733 12.0113 19.8093 11.8509 19.8107 11.6843C19.8122 11.5178 19.879 11.3585 19.9967 11.2407C20.1145 11.123 20.2738 11.0562 20.4403 11.0547C20.6068 11.0533 20.7673 11.1173 20.8871 11.233L22.1389 12.4848L26.1129 8.51081C26.2327 8.39511 26.3932 8.3311 26.5597 8.33254C26.7262 8.33399 26.8855 8.40079 27.0033 8.51855C27.1211 8.63631 27.1878 8.79561 27.1893 8.96214C27.1907 9.12867 27.1267 9.2891 27.011 9.40889L22.5879 13.832C22.5291 13.891 22.4591 13.9378 22.382 13.9697C22.3049 14.0015 22.2223 14.0177 22.1389 14.0174Z" fill="#B75C5C"/>
</svg>
