<?xml version="1.0" standalone="no"?>
<!DOCTYPE svg PUBLIC "-//W3C//DTD SVG 20010904//EN"
 "http://www.w3.org/TR/2001/REC-SVG-20010904/DTD/svg10.dtd">
<svg version="1.0" xmlns="http://www.w3.org/2000/svg"
 width="129.000000pt" height="142.000000pt" viewBox="0 0 129.000000 142.000000"
 preserveAspectRatio="xMidYMid meet">

<g transform="translate(0.000000,142.000000) scale(0.100000,-0.100000)"
fill="#000000" stroke="none">
<path d="M700 947 c0 -25 5 -49 10 -52 6 -3 10 -15 10 -26 0 -16 7 -19 50 -19
44 0 50 3 50 21 0 18 5 20 43 15 246 -31 337 -38 337 -26 0 6 -6 26 -14 44
-15 37 -3 34 -256 61 -74 8 -156 17 -182 21 l-48 7 0 -46z"/>
<path d="M750 809 c-18 -33 -9 -64 20 -64 18 0 26 6 28 22 4 24 -14 63 -28 63
-5 0 -14 -9 -20 -21z m30 -29 c0 -19 -11 -26 -23 -14 -8 8 3 34 14 34 5 0 9
-9 9 -20z"/>
<path d="M517 770 c-16 -5 -35 -14 -43 -21 -11 -9 -18 -8 -30 2 -12 10 -63 15
-182 17 l-165 4 6 -85 c4 -49 15 -105 27 -131 l20 -47 147 3 c145 3 148 3 151
26 4 28 33 29 217 6 71 -9 146 -14 165 -11 59 8 211 77 208 95 -5 27 -41 30
-113 11 -84 -22 -112 -23 -145 -4 l-25 14 26 1 c15 0 32 7 39 15 19 23 -1 40
-93 76 -87 33 -164 44 -210 29z m216 -50 c42 -17 77 -35 77 -40 0 -21 -55 -19
-170 6 -48 10 -6 -13 91 -51 l96 -37 87 22 c127 32 131 13 9 -38 l-98 -41
-115 14 c-63 8 -148 15 -187 15 l-73 0 0 75 0 75 38 20 c54 30 144 23 245 -20z
m-308 18 c2 -7 5 -57 7 -111 l3 -97 -27 0 -28 0 0 104 c0 101 3 112 33 115 4
1 10 -5 12 -11z"/>
</g>
</svg>
