<svg width="47" height="48" viewBox="0 0 47 48" fill="none" xmlns="http://www.w3.org/2000/svg">
<path d="M27.3648 44.9323C26.8945 44.7397 26.3598 44.9731 26.1712 45.4537C26.0136 45.8553 25.6139 46.1251 25.1768 46.1251H21.8232C21.3861 46.1251 20.9864 45.8553 20.8288 45.4537C20.6402 44.9731 20.1058 44.7401 19.6352 44.9323C19.1646 45.1251 18.936 45.6708 19.1247 46.1513C19.5656 47.2744 20.6247 48.0001 21.8232 48.0001H25.1768C26.3753 48.0001 27.4344 47.2744 27.8752 46.1513C28.0639 45.6708 27.8354 45.1251 27.3648 44.9323Z" fill="#B75C5C"/>
<path d="M38.1454 40.1027C37.8961 38.7898 37.104 37.6532 35.9719 36.9819C36.1778 36.8102 36.3709 36.6203 36.5472 36.4111C37.4166 35.3796 37.8016 34.016 37.6032 32.6702C37.2811 30.4836 36.3698 28.4405 34.968 26.7617C33.9184 25.5048 32.6283 24.4919 31.1844 23.7802C32.9514 21.8551 34.0354 19.2685 34.0354 16.428C34.0353 11.5123 30.7905 7.35591 26.3735 6.07538C26.9752 5.34178 27.3034 4.42528 27.3034 3.45684C27.3035 1.55072 25.785 0 23.9187 0C23.9186 0 23.9185 0 23.9184 0C23.165 0 22.4594 0.250219 21.9317 0.704437C21.3484 1.20638 21.0272 1.91184 21.0271 2.69081C21.0271 3.2085 21.4381 3.62831 21.9451 3.62831C22.452 3.62831 22.863 3.20859 22.863 2.69081C22.863 2.46778 22.9477 2.28187 23.1147 2.13806C23.3119 1.96837 23.5973 1.87491 23.9185 1.87491H23.9186C24.7727 1.87491 25.4676 2.58441 25.4676 3.45666C25.4676 4.04747 25.2423 4.60284 24.8333 5.02059C24.4242 5.43825 23.8805 5.66831 23.3022 5.66831C23.3021 5.66831 23.3021 5.66831 23.302 5.66831C23.2795 5.66831 23.2575 5.67009 23.2354 5.67178C17.5481 5.81578 12.9648 10.5855 12.9647 16.4279C12.9647 19.2684 14.0486 21.855 15.8156 23.7801C14.3718 24.4918 13.0817 25.5046 12.0321 26.7616C10.6303 28.4404 9.719 30.4835 9.3968 32.67C9.19851 34.0159 9.58342 35.3795 10.4528 36.411C10.6291 36.6202 10.8222 36.8102 11.0281 36.9818C9.89599 37.6531 9.10387 38.7897 8.85464 40.1026C8.60468 41.4188 8.92542 42.7794 9.73442 43.8353L11.7003 46.4008C12.4945 47.4373 13.701 47.9947 14.9247 47.9947C15.6194 47.9947 16.3198 47.815 16.9534 47.4414C18.7032 46.4097 19.453 44.1886 18.6976 42.275L17.505 39.2536C17.4253 39.0518 17.3312 38.8582 17.2261 38.6722H23.959C24.466 38.6722 24.877 38.2523 24.877 37.7347C24.877 37.217 24.466 36.7972 23.959 36.7972H15.481V34.8208C15.481 34.5663 15.6837 34.3593 15.9329 34.3593H31.0672C31.3163 34.3593 31.5191 34.5663 31.5191 34.8208V36.9268C30.6083 37.4367 29.8893 38.2546 29.4949 39.2536L28.3024 42.2749C27.547 44.1886 28.2968 46.4097 30.0465 47.4414C30.6802 47.815 31.3803 47.9947 32.0752 47.9947C33.2989 47.9947 34.5055 47.4372 35.2998 46.4008L37.2655 43.8353C38.0747 42.7794 38.3953 41.4189 38.1454 40.1027ZM14.8005 16.428C14.8006 11.5291 18.7033 7.5435 23.5 7.54341C28.2968 7.5435 32.1994 11.5291 32.1995 16.428C32.1995 21.3269 28.2969 25.3125 23.5 25.3126C18.7032 25.3125 14.8005 21.3269 14.8005 16.428ZM15.8025 39.9547L16.995 42.9761C17.4104 44.0287 16.9979 45.2503 16.0355 45.8178C15.0733 46.3853 13.831 46.1393 13.1461 45.2454L11.1803 42.68C10.699 42.0519 10.5083 41.2427 10.657 40.4597C10.8057 39.6767 11.2789 38.9989 11.9553 38.6001C12.6315 38.2013 13.4429 38.1218 14.1812 38.3816C14.9196 38.6416 15.5105 39.2151 15.8025 39.9547ZM31.0733 30.6094C30.5663 30.6094 30.1553 31.0292 30.1553 31.5469V32.4844H16.8508V31.5469C16.8508 31.0292 16.4398 30.6094 15.9328 30.6094C15.4258 30.6094 15.0149 31.0292 15.0149 31.5469V32.6813C14.2092 33.0433 13.645 33.8659 13.645 34.8209V36.1448C12.9498 36.0738 12.3047 35.7342 11.8442 35.1878C11.324 34.5705 11.0937 33.7545 11.2123 32.9491C11.7378 29.3816 14.0669 26.434 17.3366 25.1485C19.0708 26.4305 21.2003 27.1875 23.5 27.1875C25.7997 27.1875 27.9292 26.4305 29.6634 25.1485C32.9331 26.434 35.2622 29.3816 35.7878 32.9491C35.9064 33.7545 35.676 34.5705 35.1557 35.1878C34.6953 35.7342 34.0501 36.0738 33.355 36.1448V34.8209C33.355 33.8683 32.7936 33.0475 31.9912 32.6842V31.5469C31.9912 31.0292 31.5802 30.6094 31.0733 30.6094ZM35.8197 42.6799L33.854 45.2453C33.1691 46.1391 31.927 46.3851 30.9646 45.8177C30.0022 45.2502 29.5897 44.0286 30.0052 42.9758L31.1977 39.9545C31.4897 39.2148 32.0806 38.6414 32.819 38.3814C33.1049 38.2808 33.4018 38.2311 33.6975 38.2311C34.1654 38.2311 34.6306 38.3557 35.0449 38.6C35.7213 38.9988 36.1944 39.6766 36.3432 40.4596C36.4917 41.2426 36.301 42.0518 35.8197 42.6799Z" fill="#B75C5C"/>
<path d="M28.2542 37.0716C28.0834 36.8972 27.8466 36.7969 27.6052 36.7969C27.3638 36.7969 27.1269 36.8971 26.9562 37.0716C26.7854 37.246 26.6872 37.4878 26.6872 37.7344C26.6872 37.9819 26.7854 38.2228 26.9562 38.3971C27.1269 38.5724 27.3638 38.6719 27.6052 38.6719C27.8466 38.6719 28.0834 38.5724 28.2542 38.3971C28.4249 38.2228 28.5232 37.9809 28.5232 37.7344C28.5232 37.4878 28.4249 37.2459 28.2542 37.0716Z" fill="#B75C5C"/>
<path d="M26.0308 19.6296C25.637 19.3035 25.059 19.3655 24.7397 19.7676C24.4347 20.152 23.9828 20.3724 23.5 20.3724C23.0172 20.3724 22.5652 20.1519 22.2603 19.7676C21.9411 19.3653 21.3631 19.3037 20.9692 19.6296C20.5753 19.9556 20.5148 20.5459 20.834 20.9482C21.4893 21.7738 22.461 22.2473 23.5 22.2473C24.539 22.2473 25.5108 21.7738 26.166 20.9482C26.4852 20.5459 26.4247 19.9556 26.0308 19.6296Z" fill="#B75C5C"/>
<path d="M21.1804 15.765C20.3477 14.9146 18.9928 14.9146 18.1599 15.765C17.8014 16.1311 17.8013 16.7246 18.1599 17.0908C18.5183 17.457 19.0996 17.457 19.4581 17.0909C19.5749 16.9716 19.7652 16.9716 19.8822 17.0909C20.0615 17.2739 20.2964 17.3655 20.5313 17.3655C20.7662 17.3655 21.0012 17.2739 21.1804 17.0909C21.5388 16.7248 21.5388 16.1312 21.1804 15.765Z" fill="#B75C5C"/>
<path d="M28.8401 15.7649C28.0073 14.9146 26.6523 14.9146 25.8196 15.7649C25.4611 16.131 25.4611 16.7246 25.8196 17.0908C25.9988 17.2739 26.2338 17.3654 26.4687 17.3654C26.7036 17.3654 26.9386 17.2738 27.1178 17.0908C27.2347 16.9716 27.425 16.9714 27.5419 17.0908C27.9004 17.457 28.4816 17.4569 28.8401 17.0907C29.1986 16.7246 29.1986 16.1311 28.8401 15.7649Z" fill="#B75C5C"/>
</svg>
