<?xml version="1.0" standalone="no"?>
<!DOCTYPE svg PUBLIC "-//W3C//DTD SVG 20010904//EN"
 "http://www.w3.org/TR/2001/REC-SVG-20010904/DTD/svg10.dtd">
<svg version="1.0" xmlns="http://www.w3.org/2000/svg"
 width="512.000000pt" height="512.000000pt" viewBox="0 0 512.000000 512.000000"
 preserveAspectRatio="xMidYMid meet">

<g transform="translate(0.000000,512.000000) scale(0.100000,-0.100000)"
fill="#000000" stroke="none">
<path d="M1045 4756 c-59 -28 -117 -85 -142 -141 -17 -37 -18 -95 -21 -852
l-3 -813 -132 0 c-210 0 -303 -35 -429 -160 -90 -89 -141 -183 -158 -290 -6
-39 -10 -309 -10 -687 l0 -621 26 -31 26 -31 338 0 339 0 3 -262 c3 -242 5
-267 24 -308 31 -67 68 -106 132 -137 l57 -28 1435 0 1435 0 45 21 c25 12 62
39 83 60 72 73 71 69 77 374 l5 275 341 3 341 2 24 26 24 26 0 656 c0 653 0
657 -22 728 -52 165 -197 310 -365 366 -18 6 -103 14 -188 17 l-155 6 -5 430
c-6 467 -2 433 -65 580 -42 97 -109 176 -361 426 l-259 256 -105 51 c-178 87
-101 82 -1260 82 l-1025 0 -50 -24z m2035 -598 c0 -243 2 -266 21 -308 25 -55
71 -105 124 -133 37 -21 57 -22 310 -27 l270 -5 3 -547 2 -548 -1280 0 -1280
0 0 915 0 915 915 0 915 0 0 -262z m1331 -1579 c19 -7 49 -26 68 -43 100 -93
74 -238 -54 -297 -46 -21 -66 -23 -117 -9 -167 47 -175 287 -11 346 47 16 71
17 114 3z m-601 -1454 l0 -365 -1280 0 -1280 0 0 365 0 365 1280 0 1280 0 0
-365z"/>
</g>
</svg>
